<mxfile host="app.diagrams.net" agent="Mozilla/5.0 (Windows NT 10.0; Win64; x64) AppleWebKit/537.36 (KHTML, like Gecko) Chrome/122.0.0.0 Safari/537.36" version="26.0.16">
  <diagram name="Page-1" id="hLjUIzrMiFrBO7jH8AAe">
    <mxGraphModel grid="1" page="1" gridSize="10" guides="1" tooltips="1" connect="1" arrows="1" fold="1" pageScale="1" pageWidth="1169" pageHeight="827" math="0" shadow="0">
      <root>
        <mxCell id="0" />
        <mxCell id="1" parent="0" />
        <mxCell id="643raFa5cq6lRftVgl6i-58" value="" style="rounded=0;whiteSpace=wrap;html=1;fillColor=none;dashed=1;strokeColor=#000000;" vertex="1" parent="1">
          <mxGeometry x="30" y="165" width="1130" height="575" as="geometry" />
        </mxCell>
        <mxCell id="643raFa5cq6lRftVgl6i-2" value="" style="rounded=0;whiteSpace=wrap;html=1;fillColor=none;dashed=1;strokeColor=#000000;" vertex="1" parent="1">
          <mxGeometry x="70" y="210" width="210" height="470" as="geometry" />
        </mxCell>
        <mxCell id="643raFa5cq6lRftVgl6i-4" value="DATA SOURCES" style="rounded=0;whiteSpace=wrap;html=1;strokeColor=none;fontSize=18;" vertex="1" parent="1">
          <mxGeometry x="102.5" y="190" width="145" height="40" as="geometry" />
        </mxCell>
        <mxCell id="643raFa5cq6lRftVgl6i-37" style="edgeStyle=orthogonalEdgeStyle;rounded=0;orthogonalLoop=1;jettySize=auto;html=1;" edge="1" parent="1" source="643raFa5cq6lRftVgl6i-5" target="643raFa5cq6lRftVgl6i-19">
          <mxGeometry relative="1" as="geometry" />
        </mxCell>
        <mxCell id="643raFa5cq6lRftVgl6i-38" style="edgeStyle=orthogonalEdgeStyle;rounded=0;orthogonalLoop=1;jettySize=auto;html=1;entryX=0;entryY=0.5;entryDx=0;entryDy=0;" edge="1" parent="1" source="643raFa5cq6lRftVgl6i-5" target="643raFa5cq6lRftVgl6i-20">
          <mxGeometry relative="1" as="geometry" />
        </mxCell>
        <mxCell id="643raFa5cq6lRftVgl6i-40" style="edgeStyle=orthogonalEdgeStyle;rounded=0;orthogonalLoop=1;jettySize=auto;html=1;entryX=0;entryY=0.5;entryDx=0;entryDy=0;" edge="1" parent="1" source="643raFa5cq6lRftVgl6i-5" target="643raFa5cq6lRftVgl6i-18">
          <mxGeometry relative="1" as="geometry" />
        </mxCell>
        <mxCell id="643raFa5cq6lRftVgl6i-5" value="" style="image;aspect=fixed;html=1;points=[];align=center;fontSize=12;image=img/lib/azure2/general/Folder_Blank.svg;" vertex="1" parent="1">
          <mxGeometry x="135.71" y="342" width="69" height="56.00000000000001" as="geometry" />
        </mxCell>
        <mxCell id="643raFa5cq6lRftVgl6i-7" value="" style="image;aspect=fixed;html=1;points=[];align=center;fontSize=12;image=img/lib/azure2/general/File.svg;" vertex="1" parent="1">
          <mxGeometry x="182.83" y="380" width="32.46" height="40" as="geometry" />
        </mxCell>
        <mxCell id="643raFa5cq6lRftVgl6i-41" style="edgeStyle=orthogonalEdgeStyle;rounded=0;orthogonalLoop=1;jettySize=auto;html=1;entryX=0;entryY=0.5;entryDx=0;entryDy=0;" edge="1" parent="1" source="643raFa5cq6lRftVgl6i-8" target="643raFa5cq6lRftVgl6i-22">
          <mxGeometry relative="1" as="geometry" />
        </mxCell>
        <mxCell id="643raFa5cq6lRftVgl6i-42" style="edgeStyle=orthogonalEdgeStyle;rounded=0;orthogonalLoop=1;jettySize=auto;html=1;entryX=0;entryY=0.5;entryDx=0;entryDy=0;" edge="1" parent="1" source="643raFa5cq6lRftVgl6i-8" target="643raFa5cq6lRftVgl6i-21">
          <mxGeometry relative="1" as="geometry" />
        </mxCell>
        <mxCell id="643raFa5cq6lRftVgl6i-43" style="edgeStyle=orthogonalEdgeStyle;rounded=0;orthogonalLoop=1;jettySize=auto;html=1;entryX=0;entryY=0.5;entryDx=0;entryDy=0;" edge="1" parent="1" source="643raFa5cq6lRftVgl6i-8" target="643raFa5cq6lRftVgl6i-23">
          <mxGeometry relative="1" as="geometry" />
        </mxCell>
        <mxCell id="643raFa5cq6lRftVgl6i-8" value="" style="image;aspect=fixed;html=1;points=[];align=center;fontSize=12;image=img/lib/azure2/general/Folder_Blank.svg;" vertex="1" parent="1">
          <mxGeometry x="136" y="528" width="69" height="56.00000000000001" as="geometry" />
        </mxCell>
        <mxCell id="643raFa5cq6lRftVgl6i-9" value="" style="image;aspect=fixed;html=1;points=[];align=center;fontSize=12;image=img/lib/azure2/general/File.svg;" vertex="1" parent="1">
          <mxGeometry x="182.83" y="560" width="32.46" height="40" as="geometry" />
        </mxCell>
        <mxCell id="643raFa5cq6lRftVgl6i-10" value="&lt;b&gt;&lt;font style=&quot;font-size: 15px;&quot;&gt;CRM&lt;/font&gt;&lt;/b&gt;" style="text;html=1;align=center;verticalAlign=middle;whiteSpace=wrap;rounded=0;" vertex="1" parent="1">
          <mxGeometry x="135.71" y="420" width="60" height="30" as="geometry" />
        </mxCell>
        <mxCell id="643raFa5cq6lRftVgl6i-11" value="&lt;b&gt;&lt;font style=&quot;font-size: 15px;&quot;&gt;ERP&lt;/font&gt;&lt;/b&gt;" style="text;html=1;align=center;verticalAlign=middle;whiteSpace=wrap;rounded=0;" vertex="1" parent="1">
          <mxGeometry x="140.21" y="605" width="60" height="30" as="geometry" />
        </mxCell>
        <mxCell id="643raFa5cq6lRftVgl6i-12" value="" style="rounded=1;whiteSpace=wrap;html=1;fontColor=default;strokeColor=#CD7F32;fillStyle=hatch;fillColor=#CD7F32;gradientColor=none;strokeWidth=1;" vertex="1" parent="1">
          <mxGeometry x="360" y="260" width="200" height="420" as="geometry" />
        </mxCell>
        <mxCell id="643raFa5cq6lRftVgl6i-13" value="" style="rounded=1;whiteSpace=wrap;html=1;fillStyle=hatch;fillColor=#C0C0C0;strokeColor=#C0C0C0;" vertex="1" parent="1">
          <mxGeometry x="640" y="260" width="200" height="420" as="geometry" />
        </mxCell>
        <mxCell id="643raFa5cq6lRftVgl6i-14" value="" style="rounded=1;whiteSpace=wrap;html=1;strokeColor=#FFD700;fillStyle=hatch;fillColor=#FFD700;" vertex="1" parent="1">
          <mxGeometry x="920" y="260" width="200" height="420" as="geometry" />
        </mxCell>
        <mxCell id="643raFa5cq6lRftVgl6i-15" value="&lt;font style=&quot;font-size: 20px;&quot;&gt;&lt;b&gt;Bronze Layer&lt;/b&gt;&lt;/font&gt;" style="rounded=1;whiteSpace=wrap;html=1;fillColor=#CD7F32;" vertex="1" parent="1">
          <mxGeometry x="360" y="210" width="200" height="40" as="geometry" />
        </mxCell>
        <mxCell id="643raFa5cq6lRftVgl6i-16" value="&lt;font style=&quot;font-size: 20px;&quot;&gt;&lt;b&gt;Sliver Layer&lt;/b&gt;&lt;/font&gt;" style="rounded=1;whiteSpace=wrap;html=1;fillColor=#C0C0C0;strokeColor=#C0C0C0;" vertex="1" parent="1">
          <mxGeometry x="640" y="210" width="200" height="40" as="geometry" />
        </mxCell>
        <mxCell id="643raFa5cq6lRftVgl6i-17" value="&lt;font style=&quot;font-size: 20px;&quot;&gt;&lt;b&gt;Gold Layer&lt;/b&gt;&lt;/font&gt;" style="rounded=1;whiteSpace=wrap;html=1;fillColor=#FFD700;strokeColor=#FFD700;" vertex="1" parent="1">
          <mxGeometry x="920" y="210" width="200" height="40" as="geometry" />
        </mxCell>
        <mxCell id="643raFa5cq6lRftVgl6i-44" style="edgeStyle=orthogonalEdgeStyle;rounded=0;orthogonalLoop=1;jettySize=auto;html=1;exitX=1;exitY=0.5;exitDx=0;exitDy=0;entryX=0;entryY=0.5;entryDx=0;entryDy=0;" edge="1" parent="1" source="643raFa5cq6lRftVgl6i-18" target="643raFa5cq6lRftVgl6i-24">
          <mxGeometry relative="1" as="geometry" />
        </mxCell>
        <mxCell id="643raFa5cq6lRftVgl6i-18" value="&lt;b&gt;crm_sales_details&lt;/b&gt;" style="rounded=1;whiteSpace=wrap;html=1;fillColor=#CD7F32;strokeColor=#CD7F32;" vertex="1" parent="1">
          <mxGeometry x="375" y="300" width="170" height="40" as="geometry" />
        </mxCell>
        <mxCell id="643raFa5cq6lRftVgl6i-45" style="edgeStyle=orthogonalEdgeStyle;rounded=0;orthogonalLoop=1;jettySize=auto;html=1;exitX=1;exitY=0.5;exitDx=0;exitDy=0;entryX=0;entryY=0.5;entryDx=0;entryDy=0;" edge="1" parent="1" source="643raFa5cq6lRftVgl6i-19" target="643raFa5cq6lRftVgl6i-25">
          <mxGeometry relative="1" as="geometry" />
        </mxCell>
        <mxCell id="643raFa5cq6lRftVgl6i-19" value="&lt;b&gt;crm_cust_info&lt;/b&gt;" style="rounded=1;whiteSpace=wrap;html=1;fillColor=#CD7F32;strokeColor=#CD7F32;" vertex="1" parent="1">
          <mxGeometry x="375" y="350" width="170" height="40" as="geometry" />
        </mxCell>
        <mxCell id="643raFa5cq6lRftVgl6i-46" style="edgeStyle=orthogonalEdgeStyle;rounded=0;orthogonalLoop=1;jettySize=auto;html=1;entryX=0;entryY=0.5;entryDx=0;entryDy=0;" edge="1" parent="1" source="643raFa5cq6lRftVgl6i-20" target="643raFa5cq6lRftVgl6i-26">
          <mxGeometry relative="1" as="geometry" />
        </mxCell>
        <mxCell id="643raFa5cq6lRftVgl6i-20" value="&lt;b&gt;crm_prd_info&lt;/b&gt;" style="rounded=1;whiteSpace=wrap;html=1;fillColor=#CD7F32;strokeColor=#CD7F32;" vertex="1" parent="1">
          <mxGeometry x="375" y="400" width="170" height="40" as="geometry" />
        </mxCell>
        <mxCell id="643raFa5cq6lRftVgl6i-47" style="edgeStyle=orthogonalEdgeStyle;rounded=0;orthogonalLoop=1;jettySize=auto;html=1;entryX=0;entryY=0.5;entryDx=0;entryDy=0;" edge="1" parent="1" source="643raFa5cq6lRftVgl6i-21" target="643raFa5cq6lRftVgl6i-27">
          <mxGeometry relative="1" as="geometry" />
        </mxCell>
        <mxCell id="643raFa5cq6lRftVgl6i-21" value="&lt;b&gt;erp_cust_az12&lt;/b&gt;" style="rounded=1;whiteSpace=wrap;html=1;fillColor=#CD7F32;strokeColor=#CD7F32;" vertex="1" parent="1">
          <mxGeometry x="375" y="488" width="170" height="40" as="geometry" />
        </mxCell>
        <mxCell id="643raFa5cq6lRftVgl6i-48" style="edgeStyle=orthogonalEdgeStyle;rounded=0;orthogonalLoop=1;jettySize=auto;html=1;entryX=0;entryY=0.5;entryDx=0;entryDy=0;" edge="1" parent="1" source="643raFa5cq6lRftVgl6i-22" target="643raFa5cq6lRftVgl6i-28">
          <mxGeometry relative="1" as="geometry" />
        </mxCell>
        <mxCell id="643raFa5cq6lRftVgl6i-22" value="&lt;b&gt;erp_loc_a101&lt;/b&gt;" style="rounded=1;whiteSpace=wrap;html=1;fillColor=#CD7F32;strokeColor=#CD7F32;" vertex="1" parent="1">
          <mxGeometry x="375" y="536" width="170" height="40" as="geometry" />
        </mxCell>
        <mxCell id="643raFa5cq6lRftVgl6i-49" style="edgeStyle=orthogonalEdgeStyle;rounded=0;orthogonalLoop=1;jettySize=auto;html=1;entryX=0;entryY=0.5;entryDx=0;entryDy=0;" edge="1" parent="1" source="643raFa5cq6lRftVgl6i-23" target="643raFa5cq6lRftVgl6i-29">
          <mxGeometry relative="1" as="geometry" />
        </mxCell>
        <mxCell id="643raFa5cq6lRftVgl6i-23" value="&lt;b&gt;erp_pz_cat_g1v2&lt;/b&gt;" style="rounded=1;whiteSpace=wrap;html=1;fillColor=#CD7F32;strokeColor=#CD7F32;" vertex="1" parent="1">
          <mxGeometry x="375" y="590" width="170" height="40" as="geometry" />
        </mxCell>
        <mxCell id="643raFa5cq6lRftVgl6i-50" style="edgeStyle=orthogonalEdgeStyle;rounded=0;orthogonalLoop=1;jettySize=auto;html=1;entryX=0;entryY=0.5;entryDx=0;entryDy=0;" edge="1" parent="1" source="643raFa5cq6lRftVgl6i-24" target="643raFa5cq6lRftVgl6i-30">
          <mxGeometry relative="1" as="geometry" />
        </mxCell>
        <mxCell id="643raFa5cq6lRftVgl6i-24" value="&lt;b&gt;crm_sales_details&lt;/b&gt;" style="rounded=1;whiteSpace=wrap;html=1;fillColor=#C0C0C0;strokeColor=#C0C0C0;" vertex="1" parent="1">
          <mxGeometry x="655" y="300" width="170" height="40" as="geometry" />
        </mxCell>
        <mxCell id="643raFa5cq6lRftVgl6i-25" value="&lt;b&gt;crm_cust_info&lt;/b&gt;" style="rounded=1;whiteSpace=wrap;html=1;fillColor=#C0C0C0;strokeColor=#C0C0C0;" vertex="1" parent="1">
          <mxGeometry x="655" y="350" width="170" height="40" as="geometry" />
        </mxCell>
        <mxCell id="643raFa5cq6lRftVgl6i-26" value="&lt;b&gt;crm_prd_info&lt;/b&gt;" style="rounded=1;whiteSpace=wrap;html=1;fillColor=#C0C0C0;strokeColor=#C0C0C0;" vertex="1" parent="1">
          <mxGeometry x="655" y="400" width="170" height="40" as="geometry" />
        </mxCell>
        <mxCell id="643raFa5cq6lRftVgl6i-27" value="&lt;b&gt;erp_cust_az12&lt;/b&gt;" style="rounded=1;whiteSpace=wrap;html=1;fillColor=#C0C0C0;strokeColor=#C0C0C0;" vertex="1" parent="1">
          <mxGeometry x="655" y="488" width="170" height="40" as="geometry" />
        </mxCell>
        <mxCell id="643raFa5cq6lRftVgl6i-28" value="&lt;b&gt;erp_loc_a101&lt;/b&gt;" style="rounded=1;whiteSpace=wrap;html=1;fillColor=#C0C0C0;strokeColor=#C0C0C0;" vertex="1" parent="1">
          <mxGeometry x="655" y="536" width="170" height="40" as="geometry" />
        </mxCell>
        <mxCell id="643raFa5cq6lRftVgl6i-29" value="&lt;b&gt;erp_pz_cat_g1v2&lt;/b&gt;" style="rounded=1;whiteSpace=wrap;html=1;fillColor=#C0C0C0;strokeColor=#C0C0C0;" vertex="1" parent="1">
          <mxGeometry x="655" y="590" width="170" height="40" as="geometry" />
        </mxCell>
        <mxCell id="643raFa5cq6lRftVgl6i-30" value="&lt;b&gt;fact_sales&lt;/b&gt;" style="rounded=1;whiteSpace=wrap;html=1;fillColor=#FFD700;strokeColor=#FFD700;" vertex="1" parent="1">
          <mxGeometry x="935" y="300" width="170" height="40" as="geometry" />
        </mxCell>
        <mxCell id="643raFa5cq6lRftVgl6i-34" value="&lt;b&gt;dim_customers&lt;/b&gt;" style="rounded=1;whiteSpace=wrap;html=1;fillColor=#FFD700;strokeColor=#FFD700;" vertex="1" parent="1">
          <mxGeometry x="935" y="470" width="170" height="40" as="geometry" />
        </mxCell>
        <mxCell id="643raFa5cq6lRftVgl6i-35" value="&lt;b&gt;dim_products&lt;/b&gt;" style="rounded=1;whiteSpace=wrap;html=1;fillColor=#FFD700;strokeColor=#FFD700;" vertex="1" parent="1">
          <mxGeometry x="935" y="565" width="170" height="40" as="geometry" />
        </mxCell>
        <mxCell id="643raFa5cq6lRftVgl6i-53" value="" style="endArrow=classic;html=1;rounded=0;entryX=0;entryY=0.5;entryDx=0;entryDy=0;exitX=1;exitY=0.5;exitDx=0;exitDy=0;shadow=0;jumpStyle=gap;" edge="1" parent="1" source="643raFa5cq6lRftVgl6i-25" target="643raFa5cq6lRftVgl6i-34">
          <mxGeometry width="50" height="50" relative="1" as="geometry">
            <mxPoint x="830" y="380" as="sourcePoint" />
            <mxPoint x="880" y="330" as="targetPoint" />
          </mxGeometry>
        </mxCell>
        <mxCell id="643raFa5cq6lRftVgl6i-54" value="" style="endArrow=classic;html=1;rounded=0;entryX=0;entryY=0.5;entryDx=0;entryDy=0;exitX=1;exitY=0.5;exitDx=0;exitDy=0;shadow=0;jumpStyle=gap;" edge="1" parent="1" source="643raFa5cq6lRftVgl6i-27" target="643raFa5cq6lRftVgl6i-34">
          <mxGeometry width="50" height="50" relative="1" as="geometry">
            <mxPoint x="830" y="520" as="sourcePoint" />
            <mxPoint x="935" y="630" as="targetPoint" />
          </mxGeometry>
        </mxCell>
        <mxCell id="643raFa5cq6lRftVgl6i-55" value="" style="endArrow=classic;html=1;rounded=0;exitX=1;exitY=0.5;exitDx=0;exitDy=0;entryX=0;entryY=0.5;entryDx=0;entryDy=0;shadow=0;jumpStyle=gap;" edge="1" parent="1" source="643raFa5cq6lRftVgl6i-28" target="643raFa5cq6lRftVgl6i-34">
          <mxGeometry width="50" height="50" relative="1" as="geometry">
            <mxPoint x="835" y="518" as="sourcePoint" />
            <mxPoint x="945" y="500" as="targetPoint" />
          </mxGeometry>
        </mxCell>
        <mxCell id="643raFa5cq6lRftVgl6i-56" value="" style="endArrow=classic;html=1;rounded=0;entryX=0;entryY=0.5;entryDx=0;entryDy=0;exitX=1;exitY=0.5;exitDx=0;exitDy=0;shadow=0;jumpStyle=gap;" edge="1" parent="1" source="643raFa5cq6lRftVgl6i-26" target="643raFa5cq6lRftVgl6i-35">
          <mxGeometry width="50" height="50" relative="1" as="geometry">
            <mxPoint x="830" y="420" as="sourcePoint" />
            <mxPoint x="935" y="536" as="targetPoint" />
          </mxGeometry>
        </mxCell>
        <mxCell id="643raFa5cq6lRftVgl6i-57" value="" style="endArrow=classic;html=1;rounded=0;entryX=0;entryY=0.5;entryDx=0;entryDy=0;exitX=1;exitY=0.5;exitDx=0;exitDy=0;shadow=0;jumpStyle=gap;" edge="1" parent="1" source="643raFa5cq6lRftVgl6i-29" target="643raFa5cq6lRftVgl6i-35">
          <mxGeometry width="50" height="50" relative="1" as="geometry">
            <mxPoint x="835" y="430" as="sourcePoint" />
            <mxPoint x="945" y="595" as="targetPoint" />
          </mxGeometry>
        </mxCell>
        <mxCell id="643raFa5cq6lRftVgl6i-59" value="DATA FLOW" style="rounded=0;whiteSpace=wrap;html=1;strokeColor=none;fontSize=18;" vertex="1" parent="1">
          <mxGeometry x="522.5" y="140" width="145" height="40" as="geometry" />
        </mxCell>
      </root>
    </mxGraphModel>
  </diagram>
</mxfile>
